<?xml version="1.0" encoding="iso-8859-1"?>
<!-- Generator: Adobe Illustrator 19.0.0, SVG Export Plug-In . SVG Version: 6.00 Build 0)  -->
<svg xmlns="http://www.w3.org/2000/svg" xmlns:xlink="http://www.w3.org/1999/xlink" version="1.1" id="Layer_1" x="0px" y="0px" viewBox="0 0 512.001 512.001" style="enable-background:new 0 0 512.001 512.001;" xml:space="preserve">
<polygon style="fill:#5B5D6E;" points="273.102,435.575 179.04,435.575 196.142,358.614 273.102,358.614 "/>
<path style="fill:#707487;" d="M409.921,367.165H33.67c-14.168,0-25.653-11.485-25.653-25.653V102.08  c0-14.168,11.485-25.653,25.653-25.653h376.251c14.168,0,25.653,11.485,25.653,25.653v239.432  C435.574,355.68,424.089,367.165,409.921,367.165z"/>
<rect x="42.221" y="110.631" style="fill:#464655;" width="359.148" height="222.33"/>
<g>
	<path style="fill:#9BF57D;" d="M384.267,298.756L384.267,298.756c-37.781,0-68.409-30.628-68.409-68.409v-17.102   c0-37.781,30.628-68.409,68.409-68.409l0,0c37.781,0,68.409,30.628,68.409,68.409v17.102   C452.676,268.128,422.048,298.756,384.267,298.756z"/>
	<path style="fill:#9BF57D;" d="M434.621,328.887c-5.508-2.36-11.676-2.76-17.395-0.973c-10.414,3.255-21.471,5.046-32.958,5.046   c-11.487,0-22.544-1.79-32.958-5.046c-5.72-1.788-11.887-1.389-17.395,0.973l-48.633,20.842   c-12.577,5.39-20.731,17.756-20.731,31.439v37.303c0,9.446,7.656,17.102,17.102,17.102H486.88c9.446,0,17.102-7.656,17.102-17.102   v-37.303c0-13.683-8.155-26.049-20.731-31.439L434.621,328.887z"/>
</g>
<g>
	<path style="fill:#8CE16E;" d="M341.511,414.062V367.14c0-15.506,6.656-29.604,17.165-37.216c-2.486-0.594-4.948-1.253-7.367-2.008   c-5.72-1.788-11.888-1.388-17.395,0.973l-48.632,20.842c-12.577,5.388-20.731,17.755-20.731,31.438v37.303   c0,9.445,7.658,17.102,17.102,17.102h76.96C349.169,435.575,341.511,425.943,341.511,414.062z"/>
	<path style="fill:#8CE16E;" d="M367.165,230.347v-17.102c0-33.888,12.333-61.945,28.503-67.383   c-3.715-0.624-7.507-1.026-11.401-1.026c-37.781,0-68.409,30.628-68.409,68.409v17.102c0,37.781,30.628,68.409,68.409,68.409   c3.894,0,7.685-0.401,11.401-1.026C379.498,292.292,367.165,264.235,367.165,230.347z"/>
</g>
<g>
	<path style="fill:#B9FF82;" d="M469.779,409.921c-4.727,0-8.551-3.829-8.551-8.551v-14.564l-40.543-17.378   c-4.343-1.858-6.355-6.885-4.493-11.228c1.853-4.339,6.915-6.343,11.223-4.488l45.728,19.599c3.148,1.345,5.186,4.438,5.186,7.859   v20.2C478.33,406.092,474.505,409.921,469.779,409.921z"/>
	<path style="fill:#B9FF82;" d="M413.87,256.001c-1.453,0-2.931-0.372-4.284-1.157c-4.083-2.372-5.478-7.603-3.106-11.687   c2.254-3.875,3.441-8.305,3.441-12.81v-17.102c0-11.699-7.908-21.917-19.24-24.843c-4.576-1.181-7.324-5.846-6.138-10.417   c1.178-4.584,5.854-7.307,10.413-6.142c18.881,4.877,32.067,21.904,32.067,41.403v17.102c0,7.515-1.987,14.914-5.745,21.395   C419.691,254.476,416.818,256.001,413.87,256.001z"/>
</g>
<path d="M238.363,367.165c0-4.427-3.588-8.017-8.017-8.017H33.67c-9.725,0-17.637-7.912-17.637-17.637V102.08  c0-9.725,7.912-17.637,17.637-17.637h376.251c9.725,0,17.637,7.912,17.637,17.637v25.653c0,4.427,3.588,8.017,8.017,8.017  s8.017-3.589,8.017-8.017V102.08c0-18.566-15.105-33.67-33.67-33.67H33.67C15.105,68.41,0,83.514,0,102.08v239.432  c0,18.566,15.105,33.67,33.67,33.67h196.676C234.775,375.182,238.363,371.593,238.363,367.165z"/>
<path d="M358.079,110.631c0-4.427-3.588-8.017-8.017-8.017H42.221c-4.428,0-8.017,3.589-8.017,8.017v171.023  c0,4.427,3.588,8.017,8.017,8.017s8.017-3.589,8.017-8.017V118.648h299.825C354.491,118.648,358.079,115.058,358.079,110.631z"/>
<path d="M264.017,332.961c0-4.427-3.588-8.017-8.017-8.017H50.238v-9.086c0-4.427-3.588-8.017-8.017-8.017s-8.017,3.589-8.017,8.017  v17.102c0,4.427,3.588,8.017,8.017,8.017H256C260.428,340.978,264.017,337.388,264.017,332.961z"/>
<path d="M401.37,118.648c4.428,0,8.017-3.589,8.017-8.017c0-4.427-3.588-8.017-8.017-8.017h-17.102  c-4.428,0-8.017,3.589-8.017,8.017c0,4.427,3.588,8.017,8.017,8.017H401.37z"/>
<path d="M238.898,427.558h-49.59l6.061-24.244c1.073-4.295-1.537-8.647-5.833-9.722c-4.297-1.072-8.647,1.537-9.723,5.833  l-7.032,28.132h-19.394c-4.428,0-8.017,3.589-8.017,8.017s3.588,8.017,8.017,8.017h85.511c4.428,0,8.017-3.589,8.017-8.017  S243.326,427.558,238.898,427.558z"/>
<path d="M384.267,306.773c42.141,0,76.426-34.285,76.426-76.426v-17.102c0-42.141-34.285-76.426-76.426-76.426  s-76.426,34.285-76.426,76.426v17.102C307.841,272.488,342.126,306.773,384.267,306.773z M323.875,213.245  c0-33.3,27.092-60.392,60.392-60.392s60.392,27.092,60.392,60.392v17.102c0,33.3-27.092,60.392-60.392,60.392  s-60.392-27.092-60.392-60.392V213.245z"/>
<path d="M486.411,342.361l-48.633-20.842c-7.329-3.141-15.478-3.587-22.944-1.256c-19.875,6.213-41.259,6.213-61.133,0  c-7.462-2.332-15.61-1.887-22.944,1.256l-48.633,20.842c-15.545,6.662-25.589,21.895-25.589,38.807v37.304  c0,13.851,11.268,25.119,25.119,25.119h205.228c13.851,0,25.119-11.268,25.119-25.119v-37.303  C512,364.256,501.956,349.023,486.411,342.361z M495.967,418.472c0,5.01-4.076,9.086-9.086,9.086H281.653  c-5.01,0-9.086-4.076-9.086-9.086v-37.303c0-10.49,6.23-19.938,15.872-24.07l48.633-20.842c2.225-0.953,4.581-1.434,6.916-1.434  c1.673,0,3.336,0.247,4.93,0.746c22.973,7.181,47.726,7.181,70.7,0c3.816-1.193,8.023-0.949,11.845,0.689l48.633,20.842  c9.642,4.132,15.872,13.58,15.872,24.07v37.302H495.967z"/>
<g>
</g>
<g>
</g>
<g>
</g>
<g>
</g>
<g>
</g>
<g>
</g>
<g>
</g>
<g>
</g>
<g>
</g>
<g>
</g>
<g>
</g>
<g>
</g>
<g>
</g>
<g>
</g>
<g>
</g>
</svg>
